<?xml version="1.0" encoding="UTF-8"?>
<svg id="Layer_1" data-name="Layer 1" xmlns="http://www.w3.org/2000/svg" viewBox="0 0 540 540">
  <defs>
    <style>
      .cls-1 {
        fill: #fff;
      }

      .cls-2 {
        fill: #8c371d;
      }

      .cls-3 {
        fill: #ad8860;
      }
    </style>
  </defs>
  <path class="cls-1" d="M242.48,260.75l5.82,11.63,5.31,4.55,16.43.25,28.06-4.05,21.24-6.32,8.34-18.96,5.31-17.7-5.82-19.21-1.26-15.68-6.32-6.32-18.2-7.08-16.43-1.77h-14.16l-20.73,8.85-11.88,7.84-10.37,16.18s-4.55,11.12-5.06,13.15.51,11.38.51,11.38l5.82,7.58,11.12,15.93,1.52-.51.76.25Z"/>
  <g>
    <path class="cls-3" d="M307.28,262.43l-12.39,4.29,1.17,8.24-1.81,11.16-10.42,1.89-8.56,2.02-8.58-7.59-3.01-7.53-12.56-4.48-7.03,2.5-2.23-.34c-.44,28.44,42.12,55.28,42.12,55.28,34.72-24.95,35.18-47.96,33.03-60.65l-1.55.26-8.19-5.07Z"/>
    <path class="cls-3" d="M233.39,242.8l-1.7-9.41-5.1-2.26-7.85-4.74-3.52-16.12,11.44-10,11.49,1.29,4.63-4.64-5.54-7.48.04-.8c-30.24-11.88-65.63,26.22-65.63,26.22,24.49,28.3,34.38,43.15,56.52,47.72l-.73-5.67,5.96-14.11Z"/>
    <path class="cls-3" d="M257.64,172.36l13.27,6.15,6.71-1.65,7.95-7.07,17.04.85,4.41,10.03,1.65,8.82c23.8-33.88-29.49-73.39-29.49-73.39-32.12,27.8-41.79,48.16-39.88,60.86l10.72-6.3,7.62,1.71Z"/>
    <path class="cls-3" d="M384.7,216.21c-42.14-46.52-66.55-34-75.66-24.82l.07.36s13.19,2.1,13.7,2.09,10.33,2.5,10.33,2.5l3.49,6,2.4,10.57-3.09,5.96-4.16,2.95-3.59,5.97,2.37,9.23,1.22,1.83,3.07,10.56,2.14,6.2-2.15,2.87c26.04-4.45,49.87-42.27,49.87-42.27Z"/>
    <path class="cls-3" d="M252.49,199.06l2.57,1.51-1.84-4.05s-11.86-5.85-13.92-19.57l-1.44.85-.57,10.84c5.15,1.77,10.26,5.08,15.21,10.42Z"/>
    <path class="cls-3" d="M253.88,248.21l.36-.62-1.68.77s-7.21,14.62-24.39,14.22l1.05,8.12,12.65,1.9c.13-8.18,3.5-16.5,12.01-24.38Z"/>
    <path class="cls-3" d="M302.52,196.46l-1.61,2.75,3.41-1.55s1.49-3.01,4.72-6.26l-.36-1.91c-1.65,2.35-3.68,4.68-6.16,6.98Z"/>
    <path class="cls-3" d="M304.38,246.96l-2.39-1.4,1.18,2.6s11.58,5.71,13.84,19.08l5.17-.88,7.24-.65,5.41-7.22c-10.07,1.72-20.61-.91-30.45-11.53Z"/>
  </g>
  <g>
    <path class="cls-2" d="M89.85,392.26c.08.08,0,.16-.08.16h-10.31c-.08,0-.16-.08-.08-.16.33-.49,1.06-2.13-.25-5.73-.82-2.05-2.7-7.04-4.83-12.93h-22.43c-1.56,6.38-2.7,12.93-2.7,18.83h-6.47c0-6.79,20.55-54.19,20.55-54.19h4.99s14.98,38.72,18.25,47.72c1.31,3.68,2.95,5.81,3.36,6.3ZM73.88,372.54c-4.83-12.93-10.97-29.63-10.97-29.63,0,0-6.71,14.08-10.81,29.63h21.77Z"/>
    <path class="cls-2" d="M124.88,391.45c1.45.76,2.86,2.11,4.38,2.66,1.67.61,3.66.57,5.4,1.11,3.93,1.23,7.4,3.55,10.35,6.39s5.42,6.45,9.47,7.77c-7.86,1.27-16.25-1.24-22.12-6.62-1.98-1.81-3.67-3.91-5.23-6.09-1.08-1.51-2.27-4.68-4.59-4.24-2.33.44-4.4,1.23-6.83,1.23h-2.05c-12.2,0-25.13-9.91-25.13-28.24s13.18-28.24,26.19-28.24,25.87,9.9,25.87,28.24c0,13.83-7.69,22.35-15.72,26.03ZM121.53,390.87c1.64,0,3.19-.33,4.67-.98,8.76-4.17,10.89-18.91,4.58-32.17-5.24-11.13-14.16-18.09-22.27-18.09-1.88,0-3.77.41-5.57,1.23-9.09,4.34-11.13,18.5-4.58,32.25,4.42,9.25,14.65,17.76,23.17,17.76Z"/>
    <path class="cls-2" d="M182.1,383.34c-1.47,5.49-8.68,9.99-18.91,9.99-6.47,0-12.69-2.46-16.62-6.06-2.21-2.05-.74-4.5,1.31-4.5.65,0,1.47.25,2.21.98,5.32,5.24,11.3,7.53,16.37,7.53,4.75,0,8.68-1.96,10.48-5.4,3.52-6.71-2.62-12.12-8.35-14.74-3.03-1.31-11.87-5.32-13.34-5.89-4.17-1.8-10.97-6.79-10.97-13.67,0-8.1,6.22-14.41,19.4-14.41,6.38,0,12.52,3.19,14.98,5.98,2.13,2.46.49,4.5-1.56,4.5-.74,0-1.64-.33-2.29-1.06-5.08-5.32-10.97-7.45-15.88-7.45-4.58,0-8.27,1.8-9.58,4.83-2.87,6.22,2.21,12.61,7.78,15.14,2.78,1.23,10.97,4.91,15.55,7.12,4.09,1.96,12.12,7.04,9.41,17.11Z"/>
    <path class="cls-2" d="M228.11,392.18c.08.08.08.25-.08.25h-9.25c-.16,0-.16-.16-.08-.25,1.31-.74,1.31-3.03,1.31-4.75v-23.08h-24.72v23.08c0,1.72,0,4.01,1.23,4.75.16.08.16.25,0,.25h-9.33c-.08,0-.16-.16,0-.25,1.31-.74,1.31-3.03,1.31-4.75v-44.2c0-1.8,0-4.09-1.31-4.75-.16-.08-.08-.25,0-.25h9.33c.16,0,.16.16,0,.25-1.23.65-1.23,2.95-1.23,4.75v20.06h24.72v-20.06c0-1.8,0-4.09-1.31-4.75-.08-.08-.08-.25.08-.25h9.25c.16,0,.16.16.08.25-1.31.65-1.31,2.95-1.31,4.75v44.2c0,1.72,0,4.01,1.31,4.75Z"/>
    <path class="cls-2" d="M278.53,392.26c.08.08,0,.16-.08.16h-10.31c-.08,0-.16-.08-.08-.16.33-.49,1.06-2.13-.25-5.73-.82-2.05-2.7-7.04-4.83-12.93h-22.43c-1.56,6.38-2.7,12.93-2.7,18.83h-6.47c0-6.79,20.55-54.19,20.55-54.19h4.99s14.98,38.72,18.25,47.72c1.31,3.68,2.95,5.81,3.36,6.3ZM262.57,372.54c-4.83-12.93-10.97-29.63-10.97-29.63,0,0-6.71,14.08-10.81,29.63h21.77Z"/>
    <path class="cls-2" d="M359.98,376.63c0,7.29-4.75,15.8-20.06,15.8h-20.46c-.08,0-.16-.16,0-.25,1.31-.74,1.31-3.03,1.31-4.75v-44.2c0-1.8,0-4.09-1.31-4.83-.16,0-.08-.16,0-.16h17.93c10.89,0,17.27,4.83,17.27,13.83,0,4.5-1.64,10.23-6.79,12.61,8.92,1.31,12.12,6.71,12.12,11.95ZM326.99,357.23c0,2.86,4.75,7.69,12.28,7.69,5.73,0,8.51-6.14,8.51-13.51,0-6.96-4.67-12.2-11.71-12.2h-9.09v18.01ZM352.04,376.55c0-7.45-4.34-10.56-12.77-10.56-9.33,0-12.2-5.89-12.2-5.89v31.43h12.2c6.88,0,12.77-7.78,12.77-14.98Z"/>
    <path class="cls-2" d="M408.93,392.26c.08.08,0,.16-.08.16h-10.31c-.08,0-.16-.08-.08-.16.33-.49,1.06-2.13-.25-5.73-.82-2.05-2.7-7.04-4.83-12.93h-22.43c-1.56,6.38-2.7,12.93-2.7,18.83h-6.47c0-6.79,20.55-54.19,20.55-54.19h4.99s14.98,38.72,18.25,47.72c1.31,3.68,2.95,5.81,3.36,6.3ZM392.97,372.54c-4.83-12.93-10.97-29.63-10.97-29.63,0,0-6.71,14.08-10.81,29.63h21.77Z"/>
    <path class="cls-2" d="M425.71,387.43c0,1.72,0,4.01,1.31,4.75.08.08.08.25-.08.25h-9.33c-.16,0-.16-.16-.08-.25,1.31-.74,1.31-3.03,1.31-4.75v-47.56l-17.93,4.09v-5.73l42.81-.08v5.73l-18.01-4.09v47.64Z"/>
    <path class="cls-2" d="M455.83,392.18c.16.08.16.25,0,.25h-9.33c-.08,0-.16-.16,0-.25,1.31-.74,1.31-3.03,1.31-4.75v-44.2c0-1.8,0-4.09-1.31-4.75-.16-.08-.08-.25,0-.25h9.33c.16,0,.16.16,0,.25-1.23.65-1.23,2.95-1.23,4.75v44.2c0,1.72,0,4.01,1.23,4.75Z"/>
    <path class="cls-2" d="M507.9,392.02v.41h-6.14c-3.77,0-5.98-1.8-8.27-5.65-2.87-4.58-9.17-15.47-12.85-21.28-1.15-1.8-2.78-2.62-4.5-2.62-3.03,0-6.06,2.7-6.06,7.61v16.94c0,1.72,0,4.01,1.23,4.75.16.08.16.25,0,.25h-9.33c-.08,0-.16-.16,0-.25,1.31-.74,1.31-3.03,1.31-4.75v-44.2c0-1.8,0-4.09-1.31-4.75-.16-.08-.08-.25,0-.25h9.33c.16,0,.16.16,0,.25-1.23.65-1.23,2.95-1.23,4.75v21.61c3.36-6.79,22.1-26.6,31.27-26.6v5.89c-9.91,0-19.4,7.61-23.49,12.69.66-.16,1.23-.25,1.8-.25,2.95,0,5.65,2.21,7.04,4.83,2.95,5.32,12.52,20.79,14,23.25,2.78,4.58,5.32,7.37,7.2,7.37Z"/>
  </g>
  <g>
    <path class="cls-1" d="M329.38,285.9c-4.38-.13-8.01-1.27-11.42-3.56-4.75-3.19-8.81-7.56-11.74-12.63l-.06-.1-6.37-14.04,3.96-2.29c1.82,2.53,3.47,4.45,4.95,5.9-1.77-2.48-3.12-4.73-3.61-5.57l3.91-2.41c.6.92,1.75,1.97,3.25,3.07-1.05-1.45-1.65-2.44-1.72-2.57l2.49-2.37c-1.46-1.19-2.92-2.41-4.38-3.66l-5.35-4.58,7.03.55c.79.06,1.61.18,2.44.36-.46-.2-.87-.38-1.24-.53l.71-4.42c.55-.04,1.14-.05,1.75-.03,1,.03,2.04.14,3.1.3l.19-2.91s.82-.03,2.13,0c6.34.19,27.39,2.19,32,19.68.35,1.32.62,2.69.89,4.02.42,2.06.85,4.2,1.55,6.13.21.59.43,1.16.65,1.72,1.11,2.86,2.26,5.82,1.68,9.52-1.32,8.48-10.84,9.23-14.91,9.54-1.29.1-2.58.24-3.83.37-2.76.3-5.36.58-8.03.49h0Z"/>
    <path class="cls-2" d="M351.65,265.02c-1.22-3.38-1.63-7.04-2.5-10.34-5-19.02-31.82-17.98-31.82-17.98,0,0,13.44,2.28,13.29,7.16,0,0-11.26-5-18.26-4.52,0,0,18.63,7.56,21.39,16.26,0,0-13.87-10.9-23.63-11.67,4.55,3.9,9.26,7.64,14.12,11.14,1.92,1.38,3.73,2.94,5.57,4.43-2.91-.94-5.68-2.5-8.44-3.87-3.06-1.53-6.05-3.2-8.89-5.1,0,0,5.98,9.96,14.92,14.66,0,0-16.78-7.27-20.33-12.73,0,0,6.64,11.38,11.24,13.15,0,0-6.16,3.3-16.43-10.98l6.33,13.93c2.73,4.73,6.49,8.83,11.03,11.88,7.12,4.78,13.96,2.92,21.83,2.31,5.19-.41,11.85-1.38,12.82-7.61.58-3.76-1-6.71-2.23-10.11ZM316.28,273.64c-.8-.02-1.42-.69-1.4-1.48s.69-1.42,1.48-1.4,1.42.69,1.4,1.48-.69,1.42-1.48,1.4ZM319.88,277.48c-.79-.02-1.42-.69-1.4-1.48s.69-1.42,1.48-1.4,1.42.69,1.4,1.48-.69,1.42-1.48,1.4ZM324.45,280.41c-.8-.02-1.42-.69-1.4-1.48s.69-1.42,1.48-1.4,1.42.69,1.4,1.48-.69,1.42-1.48,1.4ZM329.78,281.16c-.8-.02-1.42-.69-1.4-1.48s.69-1.42,1.48-1.4,1.42.69,1.4,1.48-.69,1.42-1.48,1.4ZM347.42,258.08c-.02.79-.69,1.42-1.48,1.4s-1.42-.69-1.4-1.48.69-1.42,1.48-1.4,1.42.69,1.4,1.48ZM335.14,281.21c-.8-.02-1.42-.69-1.4-1.48s.69-1.42,1.48-1.4,1.42.69,1.4,1.48-.69,1.42-1.48,1.4ZM338.07,246.37c-.8-.02-1.42-.69-1.4-1.48s.69-1.42,1.48-1.4,1.42.69,1.4,1.48-.69,1.42-1.48,1.4ZM340.05,280.54c-.8-.02-1.42-.69-1.4-1.48s.69-1.42,1.48-1.4,1.42.69,1.4,1.48-.69,1.42-1.48,1.4ZM341.8,250.21c-.8-.02-1.42-.69-1.4-1.48s.69-1.42,1.48-1.4c.8.02,1.42.69,1.4,1.48s-.69,1.42-1.48,1.4ZM342.95,252.99c.02-.8.69-1.42,1.48-1.4s1.42.69,1.4,1.48-.69,1.42-1.48,1.4c-.8-.02-1.42-.69-1.4-1.48ZM345.1,279.18c-.8-.02-1.42-.69-1.4-1.48s.69-1.42,1.48-1.4,1.42.69,1.4,1.48-.69,1.42-1.48,1.4ZM345.89,263.39c.02-.8.69-1.42,1.48-1.4.8.02,1.42.69,1.4,1.48s-.69,1.42-1.48,1.4-1.42-.69-1.4-1.48ZM347.64,268.91c.02-.8.69-1.42,1.48-1.4s1.42.69,1.4,1.48-.69,1.42-1.48,1.4-1.42-.69-1.4-1.48ZM349.43,275.97c-.8-.02-1.42-.69-1.4-1.48s.69-1.42,1.48-1.4,1.42.69,1.4,1.48-.69,1.42-1.48,1.4Z"/>
    <path class="cls-1" d="M335.73,235.84c-2.98-.09-5.96-.53-8.86-1.31l-.11-.03-14.43-5.42,1.18-4.42c2.3.38,4.44.6,6.36.66h0c.5.02.97.02,1.42.01-3.53-.58-6.41-1.34-6.6-1.39l1.06-4.47c.32.07.72.11,1.17.12.95.03,2.08-.06,3.31-.25-1.82-.29-2.96-.57-3.05-.59l.09-3.44c-1.88.19-3.77.36-5.68.51l-7.03.54,5.36-4.58c.6-.51,1.25-.99,1.94-1.45-.76.29-1.2.48-1.22.49l-2.63-3.62c.99-1.13,2.24-2.22,3.62-3.24l-1.93-2.2c.52-.56,12.89-13.74,27.38-13.3,3.77.12,7.36,1.15,10.67,3.09,1.18.69,2.34,1.46,3.47,2.21,1.75,1.16,3.57,2.37,5.43,3.24.56.26,1.12.51,1.68.76,2.81,1.24,5.71,2.52,7.92,5.54,5.06,6.93-1.14,14.19-3.79,17.29-.84.99-1.66,2-2.44,2.97-3.98,4.94-8.11,10.06-15.92,11.59-2.73.54-5.55.77-8.38.68h0Z"/>
    <path class="cls-2" d="M355.69,199.09c-3.25-1.53-6.13-3.82-9.08-5.54-16.99-9.91-35.21,9.79-35.21,9.79,0,0,11.11-7.89,14.46-4.33,0,0-11.5,4.42-16.11,9.71,0,0,18.52-7.83,26.62-3.63,0,0-17.52,2.1-24.96,8.45,5.97-.46,11.95-1.15,17.86-2.11,2.34-.38,4.71-.55,7.07-.8-2.72,1.39-5.78,2.25-8.7,3.23-3.24,1.08-6.54,2.02-9.9,2.68,0,0,11.28,2.82,20.92-.18,0,0-17,6.72-23.38,5.37,0,0,12.74,3.36,17.25,1.35,0,0-2.02,6.69-19.38,3.85l14.32,5.38c5.28,1.41,10.83,1.65,16.2.6,8.42-1.65,11.94-7.8,17.06-13.8,3.38-3.96,7.4-9.35,3.68-14.44-2.24-3.07-5.46-4.04-8.73-5.57ZM336.76,230.2c-.58.54-1.49.52-2.04-.06s-.52-1.49.06-2.04,1.49-.52,2.04.06.52,1.49-.06,2.04ZM342.03,230.36c-.58.54-1.49.52-2.04-.06s-.52-1.49.06-2.04,1.49-.52,2.04.06.52,1.49-.06,2.04ZM347.33,229.21c-.58.54-1.49.52-2.04-.06s-.52-1.49.06-2.04,1.49-.52,2.04.06.52,1.49-.06,2.04ZM351.63,225.96c-.58.54-1.49.52-2.04-.06s-.52-1.49.06-2.04,1.49-.52,2.04.06.52,1.49-.06,2.04ZM347.78,197.17c.54.58.52,1.49-.06,2.04s-1.49.52-2.04-.06-.52-1.49.06-2.04,1.49-.52,2.04.06ZM355.45,222.21c-.58.54-1.49.52-2.04-.06s-.52-1.49.06-2.04,1.49-.52,2.04.06.52,1.49-.06,2.04ZM332.89,195.5c-.58.54-1.49.52-2.04-.06s-.52-1.49.06-2.04,1.49-.52,2.04.06.52,1.49-.06,2.04ZM358.45,218.27c-.58.54-1.49.52-2.04-.06s-.52-1.49.06-2.04,1.49-.52,2.04.06.52,1.49-.06,2.04ZM338.24,195.58c-.58.54-1.49.52-2.04-.06s-.52-1.49.06-2.04,1.49-.52,2.04.06.52,1.49-.06,2.04ZM341.02,196.74c-.54-.58-.52-1.49.06-2.04s1.49-.52,2.04.06.52,1.49-.06,2.04-1.49.52-2.04-.06ZM361.06,213.74c-.58.54-1.49.52-2.04-.06s-.52-1.49.06-2.04,1.49-.52,2.04.06.52,1.49-.06,2.04ZM350.45,202.01c-.54-.58-.52-1.49.06-2.04s1.49-.52,2.04.06.52,1.49-.06,2.04-1.49.52-2.04-.06ZM355.6,204.68c-.54-.58-.52-1.49.06-2.04s1.49-.52,2.04.06.52,1.49-.06,2.04-1.49.52-2.04-.06ZM361.85,208.4c-.58.54-1.49.52-2.04-.06s-.52-1.49.06-2.04,1.49-.52,2.04.06.52,1.49-.06,2.04Z"/>
    <path class="cls-1" d="M221.9,236.22c-2.82-.09-5.62-.49-8.32-1.19-7.71-2.01-11.51-7.37-15.18-12.55-.73-1.02-1.48-2.08-2.26-3.12-2.45-3.26-8.2-10.89-2.72-17.49,2.39-2.88,5.37-3.98,8.25-5.04.57-.21,1.15-.42,1.73-.65,1.91-.76,3.8-1.85,5.62-2.9,1.17-.68,2.38-1.38,3.6-1.99,3.43-1.73,7.08-2.54,10.84-2.43,14.49.44,26.03,14.36,26.51,14.95l-2.06,2.07c1.32,1.1,2.5,2.26,3.42,3.45l-2.84,3.46s-.45-.22-1.18-.56c.66.5,1.28,1.02,1.85,1.56l5.07,4.9-6.98-.97c-1.9-.26-3.78-.55-5.64-.86l-.12,3.44c-.09.02-1.24.23-3.08.41,1.22.26,2.34.42,3.29.45.45.01.85,0,1.17-.05l.78,4.52c-.19.04-3.12.61-6.67.98.45.03.92.06,1.42.07,1.92.06,4.07-.03,6.39-.26l.9,4.48-14.73,4.52-.11.02c-2.94.6-5.95.86-8.92.76h0Z"/>
    <path class="cls-2" d="M195.19,203.34c-4.03,4.85-.35,10.48,2.79,14.64,4.75,6.3,7.89,12.66,16.18,14.82,5.29,1.38,10.85,1.49,16.2.4l14.63-4.49c-17.51,1.77-19.11-5.03-19.11-5.03,4.38,2.28,17.3-.29,17.3-.29-6.45.95-23.01-6.8-23.01-6.8,9.44,3.58,20.87,1.46,20.87,1.46-3.31-.86-6.54-2.01-9.71-3.28-2.86-1.15-5.86-2.2-8.49-3.75,2.34.39,4.7.71,7.01,1.23,5.84,1.32,11.77,2.37,17.7,3.2-7.04-6.8-24.39-9.97-24.39-9.97,8.35-3.7,26.35,5.26,26.35,5.26-4.27-5.57-15.48-10.68-15.48-10.68,3.56-3.35,14.17,5.21,14.17,5.21,0,0-16.98-20.77-34.54-11.93-3.05,1.54-6.07,3.65-9.4,4.98-3.36,1.33-6.62,2.1-9.05,5.03ZM221.28,228.49c.58-.54,1.49-.52,2.04.06s.52,1.49-.06,2.04-1.49.52-2.04-.06-.52-1.49.06-2.04ZM216.01,228.33c.58-.54,1.49-.52,2.04.06s.52,1.49-.06,2.04-1.49.52-2.04-.06-.52-1.49.06-2.04ZM210.79,226.85c.58-.54,1.49-.52,2.04.06s.52,1.49-.06,2.04-1.49.52-2.04-.06-.52-1.49.06-2.04ZM206.7,223.35c.58-.54,1.49-.52,2.04.06s.52,1.49-.06,2.04-1.49.52-2.04-.06-.52-1.49.06-2.04ZM214.28,196.95c.54.58.52,1.49-.06,2.04s-1.49.52-2.04-.06-.52-1.49.06-2.04,1.49-.52,2.04.06ZM203.12,219.37c.58-.54,1.49-.52,2.04.06s.52,1.49-.06,2.04-1.49.52-2.04-.06-.52-1.49.06-2.04ZM227.27,194.1c.58-.54,1.49-.52,2.04.06s.52,1.49-.06,2.04-1.49.52-2.04-.06-.52-1.49.06-2.04ZM200.36,215.25c.58-.54,1.49-.52,2.04.06s.52,1.49-.06,2.04-1.49.52-2.04-.06-.52-1.49.06-2.04ZM221.93,193.85c.58-.54,1.49-.52,2.04.06s.52,1.49-.06,2.04-1.49.52-2.04-.06-.52-1.49.06-2.04ZM216.98,196.81c-.54-.58-.52-1.49.06-2.04s1.49-.52,2.04.06.52,1.49-.06,2.04-1.49.52-2.04-.06ZM198.03,210.57c.58-.54,1.49-.52,2.04.06s.52,1.49-.06,2.04-1.49.52-2.04-.06-.52-1.49.06-2.04ZM207.25,201.49c-.54-.58-.52-1.49.06-2.04s1.49-.52,2.04.06.52,1.49-.06,2.04-1.49.52-2.04-.06ZM201.95,203.84c-.54-.58-.52-1.49.06-2.04s1.49-.52,2.04.06.52,1.49-.06,2.04-1.49.52-2.04-.06ZM197.57,205.2c.58-.54,1.49-.52,2.04.06s.52,1.49-.06,2.04-1.49.52-2.04-.06-.52-1.49.06-2.04Z"/>
    <path class="cls-1" d="M298.01,201.58c2.3-2.12,4.02-4,5.29-5.65-2.26,2.07-4.34,3.69-5.12,4.28l-2.86-3.59c.84-.7,1.74-1.98,2.66-3.59-1.31,1.22-2.22,1.93-2.34,2.02l-2.65-2.19c-1.01,1.6-2.04,3.19-3.1,4.79l-3.91,5.87-.3-7.04c-.03-.8-.01-1.62.06-2.46-.14.48-.27.91-.37,1.3l-4.47-.17c-.28-1.48-.37-3.14-.31-4.85l-2.92.16c-.19-1.16-4.33-28.4,15.43-36.25,1.27-.5,2.6-.94,3.88-1.37,2-.66,4.06-1.35,5.9-2.27.55-.28,1.1-.57,1.63-.85,2.7-1.44,5.49-2.94,9.21-2.82,8.61.29,10.5,9.65,11.31,13.65.26,1.27.55,2.53.83,3.76,1.44,6.19,2.92,12.58-.69,19.68-2.6,5.1-6.44,9.66-11.12,13.18l-.09.07-13.16,8.02-2.75-3.65Z"/>
    <path class="cls-2" d="M303.88,152.61c-3.21,1.62-6.79,2.47-9.96,3.73-18.27,7.26-14.01,33.75-14.01,33.75,0,0,.64-13.61,5.51-14.05,0,0-3.61,11.78-2.28,18.67,0,0,5.26-19.41,13.56-23.2,0,0-9.15,15.08-8.73,24.86,3.32-4.99,6.46-10.11,9.35-15.36,1.14-2.07,2.47-4.05,3.73-6.06-.59,3-1.79,5.94-2.83,8.84-1.15,3.22-2.44,6.4-3.99,9.44,0,0,9.17-7.14,12.76-16.58,0,0-5.19,17.53-10.19,21.72,0,0,10.5-7.96,11.7-12.74,0,0,4.02,5.71-8.92,17.63l13.07-7.96c4.37-3.28,7.98-7.51,10.46-12.38,3.89-7.64,1.22-14.21-.34-21.95-1.03-5.11-2.8-11.59-9.1-11.8-3.8-.13-6.54,1.81-9.77,3.43ZM316.7,186.69c.07.79-.51,1.49-1.3,1.56s-1.49-.51-1.56-1.3.51-1.49,1.3-1.56,1.49.51,1.56,1.3ZM320.07,182.65c.07.79-.51,1.49-1.3,1.56s-1.49-.51-1.56-1.3.51-1.49,1.3-1.56,1.49.51,1.56,1.3ZM322.44,177.76c.07.79-.51,1.49-1.3,1.56-.79.07-1.49-.51-1.56-1.3s.51-1.49,1.3-1.56,1.49.51,1.56,1.3ZM322.53,172.37c.07.79-.51,1.49-1.3,1.56s-1.49-.51-1.56-1.3.51-1.49,1.3-1.56,1.49.51,1.56,1.3ZM297.5,157.65c.79-.07,1.49.51,1.56,1.3s-.51,1.49-1.3,1.56-1.49-.51-1.56-1.3.51-1.49,1.3-1.56ZM321.94,167.05c.07.79-.51,1.49-1.3,1.56s-1.49-.51-1.56-1.3.51-1.49,1.3-1.56,1.49.51,1.56,1.3ZM287,168.34c.07.79-.51,1.49-1.3,1.56s-1.49-.51-1.56-1.3.51-1.49,1.3-1.56,1.49.51,1.56,1.3ZM320.68,162.26c.07.79-.51,1.49-1.3,1.56s-1.49-.51-1.56-1.3.51-1.49,1.3-1.56,1.49.51,1.56,1.3ZM290.36,164.18c.07.79-.51,1.49-1.3,1.56s-1.49-.51-1.56-1.3.51-1.49,1.3-1.56,1.49.51,1.56,1.3ZM292.99,162.7c-.79.07-1.49-.51-1.56-1.3s.51-1.49,1.3-1.56,1.49.51,1.56,1.3-.51,1.49-1.3,1.56ZM318.73,157.41c.07.79-.51,1.49-1.3,1.56s-1.49-.51-1.56-1.3.51-1.49,1.3-1.56,1.49.51,1.56,1.3ZM302.95,158.53c-.79.07-1.49-.51-1.56-1.3s.51-1.49,1.3-1.56,1.49.51,1.56,1.3-.51,1.49-1.3,1.56ZM308.22,156.13c-.79.07-1.49-.51-1.56-1.3s.51-1.49,1.3-1.56,1.49.51,1.56,1.3-.51,1.49-1.3,1.56ZM315.01,153.5c.07.79-.51,1.49-1.3,1.56s-1.49-.51-1.56-1.3.51-1.49,1.3-1.56,1.49.51,1.56,1.3Z"/>
    <path class="cls-1" d="M260.88,199.42c-.65-.45-1.3-.97-1.93-1.54.29.4.57.77.81,1.09l-2.84,3.46c-1.35-.67-2.72-1.61-4.05-2.69l-1.64,2.42c-1.03-.55-25.22-13.75-19.51-34.23.37-1.31.82-2.64,1.26-3.91.68-1.99,1.39-4.05,1.76-6.08.11-.61.21-1.22.31-1.82.49-3.03.99-6.16,3.35-9.06,2.05-2.52,4.78-3.75,8.11-3.64s6.55,1.47,9.57,2.94c1.17.57,2.35,1.1,3.5,1.61,5.79,2.6,11.78,5.3,15.24,12.47,2.49,5.16,3.78,10.98,3.75,16.83v.11s-1.59,15.33-1.59,15.33l-4.57-.02c-.29-3.12-.75-5.62-1.29-7.63.28,3.05.3,5.69.3,6.67l-4.59.11c-.05-1.09-.52-2.58-1.25-4.29.17,1.78.19,2.94.19,3.08l-3.35.79c.66,1.77,1.3,3.56,1.93,5.37l2.3,6.66-5.78-4.02Z"/>
    <path class="cls-2" d="M237,158.36c-.66,3.53-2.15,6.9-3.07,10.19-5.29,18.94,18.38,31.59,18.38,31.59,0,0-10.45-8.75-7.85-12.89,0,0,7.19,10,13.47,13.12,0,0-12.26-15.93-10.25-24.84,0,0,6.46,16.42,14.49,22.01-1.96-5.66-4.13-11.27-6.56-16.75-.96-2.17-1.73-4.42-2.57-6.64,2.03,2.28,3.64,5.02,5.32,7.61,1.86,2.86,3.61,5.82,5.1,8.9,0,0-.13-11.62-5.47-20.19,0,0,10.81,14.75,11.12,21.26,0,0,.02-13.17-3.06-17.03,0,0,6.98.26,8.63,17.78l1.58-15.22c.03-5.46-1.15-10.9-3.52-15.82-3.73-7.72-10.57-9.57-17.67-13.02-4.69-2.27-10.92-4.8-14.9.09-2.4,2.95-2.52,6.3-3.18,9.85ZM271.89,168.79c.67.42.88,1.31.45,1.99s-1.31.88-1.99.45-.88-1.31-.45-1.99,1.31-.88,1.99-.45ZM270.71,163.66c.67.42.88,1.31.45,1.99s-1.31.88-1.99.45-.88-1.31-.45-1.99,1.31-.88,1.99-.45ZM268.26,158.82c.67.42.88,1.31.45,1.99s-1.31.88-1.99.45-.88-1.31-.45-1.99,1.31-.88,1.99-.45ZM264.03,155.48c.67.42.88,1.31.45,1.99s-1.31.88-1.99.45-.88-1.31-.45-1.99,1.31-.88,1.99-.45ZM237.15,166.49c.42-.67,1.31-.88,1.99-.45s.88,1.31.45,1.99-1.31.88-1.99.45-.88-1.31-.45-1.99ZM259.43,152.73c.67.42.88,1.31.45,1.99s-1.31.88-1.99.45-.88-1.31-.45-1.99,1.31-.88,1.99-.45ZM239.3,181.32c.67.42.88,1.31.45,1.99s-1.31.88-1.99.45-.88-1.31-.45-1.99,1.31-.88,1.99-.45ZM254.86,150.83c.67.42.88,1.31.45,1.99s-1.31.88-1.99.45-.88-1.31-.45-1.99,1.31-.88,1.99-.45ZM238.03,176.12c.67.42.88,1.31.45,1.99s-1.31.88-1.99.45-.88-1.31-.45-1.99,1.31-.88,1.99-.45ZM238.44,173.14c-.42.67-1.31.88-1.99.45s-.88-1.31-.45-1.99,1.31-.88,1.99-.45.88,1.31.45,1.99ZM249.82,149.45c.67.42.88,1.31.45,1.99s-1.31.88-1.99.45-.88-1.31-.45-1.99,1.31-.88,1.99-.45ZM241.15,162.68c-.42.67-1.31.88-1.99.45s-.88-1.31-.45-1.99,1.31-.88,1.99-.45.88,1.31.45,1.99ZM242.43,157.03c-.42.67-1.31.88-1.99.45s-.88-1.31-.45-1.99,1.31-.88,1.99-.45.88,1.31.45,1.99ZM244.45,150.03c.67.42.88,1.31.45,1.99s-1.31.88-1.99.45-.88-1.31-.45-1.99,1.31-.88,1.99-.45Z"/>
    <path class="cls-1" d="M284.08,316.81c-1.07-.03-2.16-.25-3.24-.66-3.51-1.31-5.52-3.76-7.47-6.14-.39-.47-.78-.94-1.18-1.41-1.35-1.56-2.99-2.98-4.59-4.36-1.02-.88-2.08-1.8-3.06-2.75-15.27-14.8-1.04-38.4-.42-39.4l2.64,1.27c.61-1.6,1.32-3.11,2.14-4.36l4.2,1.55c-.05.4-.1.85-.15,1.34.26-.81.55-1.57.88-2.3l2.96-6.39,1.37,6.91c.37,1.88.72,3.75,1.04,5.61l3.29-1.01c.07.13.64,1.13,1.39,2.76-.23-1.84-.58-3.37-1.08-4.33l4.02-2.23c.49.84,1.8,3.13,3.1,5.91-.54-2.01-1.41-4.4-2.73-7.24l3.94-2.32,9.11,12.43.06.1c2.98,5.04,4.8,10.72,5.25,16.43.63,7.94-3.18,13.29-6.87,18.46-.73,1.02-1.48,2.08-2.2,3.16-1.99,2.97-6.15,9.16-12.38,8.97h0Z"/>
    <path class="cls-2" d="M281.65,314c5.91,2.21,10.01-3.11,12.92-7.44,4.4-6.55,9.37-11.6,8.69-20.15-.43-5.45-2.16-10.74-4.94-15.44l-9.04-12.34c7.41,15.96,1.52,19.7,1.52,19.7.71-4.88-5.95-16.24-5.95-16.24,3.02,5.78,1.13,23.97,1.13,23.97.29-10.09-5.46-20.19-5.46-20.19.27,3.41.25,6.84.09,10.25-.15,3.08-.16,6.25-.76,9.25-.4-2.34-.87-4.67-1.13-7.03-.67-5.95-1.62-11.89-2.78-17.77-4.12,8.88-1.41,26.31-1.41,26.31-6.23-6.67-3.68-26.61-3.68-26.61-3.85,5.86-5.01,18.13-5.01,18.13-4.33-2.26.27-15.09.27-15.09,0,0-14.05,22.86.07,36.54,2.45,2.38,5.44,4.53,7.79,7.25,2.36,2.73,4.16,5.57,7.72,6.9ZM296.84,281.1c-.7-.37-.98-1.24-.61-1.94s1.24-.98,1.94-.61.98,1.24.61,1.94-1.24.98-1.94.61ZM298.42,286.12c-.7-.37-.98-1.24-.61-1.94s1.24-.98,1.94-.61.98,1.24.61,1.94c-.37.7-1.24.98-1.94.61ZM298.74,291.54c-.7-.37-.98-1.24-.61-1.94s1.24-.98,1.94-.61.98,1.24.61,1.94-1.24.98-1.94.61ZM296.77,296.56c-.7-.37-.98-1.24-.61-1.94s1.24-.98,1.94-.61.98,1.24.61,1.94-1.24.98-1.94.61ZM269.34,298.06c.37-.7,1.24-.98,1.94-.61s.98,1.24.61,1.94-1.24.98-1.94.61-.98-1.24-.61-1.94ZM294.19,301.25c-.7-.37-.98-1.24-.61-1.94s1.24-.98,1.94-.61.98,1.24.61,1.94-1.24.98-1.94.61ZM262.38,286.72c-.7-.37-.98-1.24-.61-1.94s1.24-.98,1.94-.61.98,1.24.61,1.94-1.24.98-1.94.61ZM291.2,305.2c-.7-.37-.98-1.24-.61-1.94s1.24-.98,1.94-.61.98,1.24.61,1.94-1.24.98-1.94.61ZM263.91,291.85c-.7-.37-.98-1.24-.61-1.94s1.24-.98,1.94-.61.98,1.24.61,1.94-1.24.98-1.94.61ZM268.32,295.55c-.37.7-1.24.98-1.94.61s-.98-1.24-.61-1.94,1.24-.98,1.94-.61.98,1.24.61,1.94ZM287.54,308.93c-.7-.37-.98-1.24-.61-1.94s1.24-.98,1.94-.61.98,1.24.61,1.94-1.24.98-1.94.61ZM275.94,303.21c-.37.7-1.24.98-1.94.61s-.98-1.24-.61-1.94c.37-.7,1.24-.98,1.94-.61s.98,1.24.61,1.94ZM279.9,307.45c-.37.7-1.24.98-1.94.61s-.98-1.24-.61-1.94,1.24-.98,1.94-.61.98,1.24.61,1.94ZM282.61,311.14c-.7-.37-.98-1.24-.61-1.94s1.24-.98,1.94-.61.98,1.24.61,1.94-1.24.98-1.94.61Z"/>
    <path class="cls-1" d="M217.96,285.05c-1.68-.05-3.21-.37-4.67-.97-7.94-3.25-6.46-12.69-5.82-16.72.2-1.28.37-2.57.53-3.81.81-6.3,1.64-12.81,7.5-18.21,4.21-3.88,9.4-6.81,15.01-8.48l.11-.03,15.13-2.94,1.31,4.38c-2.9,1.19-5.16,2.35-6.92,3.46,2.84-1.16,5.36-1.95,6.29-2.23l1.44,4.36c-1.03.37-2.32,1.25-3.74,2.45,1.66-.68,2.76-1.04,2.9-1.08l1.73,2.98c1.5-1.15,3.03-2.28,4.58-3.41l5.7-4.14-2.17,6.71c-.25.76-.55,1.52-.91,2.29.3-.4.57-.76.8-1.09l4.13,1.71c-.25,1.48-.75,3.07-1.39,4.66l2.79.86c-.23,1.15-5.82,28.13-27.08,28.62-1.07.02-2.13,0-3.03-.03l-2.16-.07c-1.98-.06-3.63-.06-5.24.12-.62.07-1.23.15-1.83.24-1.6.22-3.26.45-4.98.39h0Z"/>
    <path class="cls-2" d="M224.51,282.13c3.57-.4,7.22.05,10.64-.03,19.66-.45,24.88-26.77,24.88-26.77,0,0-5.33,12.54-10.05,11.26,0,0,7.48-9.79,8.64-16.71,0,0-11.68,16.36-20.78,17.03,0,0,13.83-10.96,16.84-20.27-4.85,3.52-9.58,7.23-14.11,11.15-1.79,1.55-3.73,2.94-5.6,4.39,1.59-2.61,3.75-4.95,5.73-7.31,2.2-2.62,4.52-5.15,7.03-7.46,0,0-11.08,3.5-17.73,11.1,0,0,10.97-14.63,17.11-16.82,0,0-12.61,3.81-15.4,7.88,0,0-1.78-6.76,14.5-13.43l-15.02,2.92c-5.24,1.56-10.09,4.27-14.11,7.97-6.31,5.81-6.09,12.9-7.31,20.69-.81,5.15-1.41,11.84,4.42,14.23,3.52,1.44,6.76.58,10.35.18ZM224.35,245.72c.21-.77,1-1.22,1.77-1.01s1.22,1,1.01,1.77-1,1.22-1.77,1.01-1.22-1-1.01-1.77ZM219.78,248.34c.21-.77,1-1.22,1.77-1.01s1.22,1,1.01,1.77-1,1.22-1.77,1.01-1.22-1-1.01-1.77ZM215.87,252.1c.21-.77,1-1.22,1.77-1.01s1.22,1,1.01,1.77-1,1.22-1.77,1.01-1.22-1-1.01-1.77ZM213.9,257.11c.21-.77,1-1.22,1.77-1.01s1.22,1,1.01,1.77c-.21.77-1,1.22-1.77,1.01s-1.22-1-1.01-1.77ZM232.25,279.63c-.77-.21-1.22-1-1.01-1.77s1-1.22,1.77-1.01,1.22,1,1.01,1.77-1,1.22-1.77,1.01ZM212.61,262.31c.21-.77,1-1.22,1.77-1.01s1.22,1,1.01,1.77-1,1.22-1.77,1.01c-.77-.21-1.22-1-1.01-1.77ZM245.82,273.26c.21-.77,1-1.22,1.77-1.01.77.21,1.22,1,1.01,1.77s-1,1.22-1.77,1.01c-.77-.21-1.22-1-1.01-1.77ZM212.12,267.24c.21-.77,1-1.22,1.77-1.01s1.22,1,1.01,1.77-1,1.22-1.77,1.01-1.22-1-1.01-1.77ZM241.22,275.99c.21-.77,1-1.22,1.77-1.01s1.22,1,1.01,1.77-1,1.22-1.77,1.01-1.22-1-1.01-1.77ZM238.24,276.46c.77.21,1.22,1,1.01,1.77s-1,1.22-1.77,1.01-1.22-1-1.01-1.77,1-1.22,1.77-1.01ZM212.26,272.47c.21-.77,1-1.22,1.77-1.01s1.22,1,1.01,1.77-1,1.22-1.77,1.01-1.22-1-1.01-1.77ZM227.44,276.91c.77.21,1.22,1,1.01,1.77s-1,1.22-1.77,1.01-1.22-1-1.01-1.77,1-1.22,1.77-1.01ZM221.66,277.33c.77.21,1.22,1,1.01,1.77s-1,1.22-1.77,1.01-1.22-1-1.01-1.77,1-1.22,1.77-1.01ZM214.38,277.43c.21-.77,1-1.22,1.77-1.01s1.22,1,1.01,1.77-1,1.22-1.77,1.01-1.22-1-1.01-1.77Z"/>
    <path class="cls-1" d="M281.17,254.57c-.75-.02-1.49-.16-2.2-.41l-1.53-.54c-.27-.09-.54-.14-.82-.15-.06,0-.12,0-.17,0l-1.62.05c-.16,0-.31,0-.47,0-1.66-.05-3.27-.67-4.54-1.75l-1.23-1.05c-.26-.22-.55-.39-.87-.5l-1.53-.54c-1.73-.61-3.16-1.83-4.03-3.44l-.77-1.43c-.16-.3-.37-.56-.63-.78l-1.24-1.06c-1.39-1.19-2.29-2.85-2.52-4.66l-.2-1.61c-.04-.34-.15-.66-.31-.96l-.77-1.43c-.87-1.61-1.11-3.48-.66-5.26l.39-1.58c.08-.33.1-.67.06-1.01l-.2-1.61c-.23-1.82.23-3.65,1.28-5.14l.94-1.33c.2-.28.34-.59.42-.92l.39-1.58c.44-1.78,1.53-3.32,3.05-4.33l1.35-.9c.28-.19.53-.42.72-.7l.94-1.33c1.06-1.5,2.62-2.54,4.41-2.94l1.59-.35c.33-.07.64-.21.93-.39l1.35-.9c1.28-.85,2.76-1.27,4.29-1.23.3,0,.59.04.89.08l1.6.24c.11.02.22.03.33.03.23,0,.45-.01.67-.06l1.59-.35c.59-.13,1.2-.19,1.81-.17,1.2.04,2.39.37,3.43.97l1.41.81c.3.17.62.28.95.33l1.6.25c1.81.28,3.44,1.21,4.59,2.64l1.02,1.26c.21.26.47.48.77.65l1.41.81c1.59.91,2.77,2.38,3.33,4.12l.5,1.55c.1.32.26.62.48.89l1.02,1.26c1.15,1.43,1.73,3.22,1.62,5.05l-.1,1.62c-.02.34.02.68.13,1l.5,1.55c.56,1.74.45,3.62-.32,5.29l-.68,1.48c-.14.31-.22.64-.24.98l-.1,1.62c-.11,1.83-.89,3.54-2.21,4.82l-1.16,1.13c-.24.24-.44.51-.58.83l-.68,1.48c-.76,1.67-2.11,2.98-3.8,3.7l-1.49.64c-.31.13-.6.32-.84.56l-1.16,1.13c-1.31,1.28-3.04,2.02-4.88,2.08l-1.62.05c-.34.01-.67.08-.98.22l-1.49.64c-.99.42-2.03.62-3.1.58h0ZM273.39,232.19c3.61.11,4.54,3.01,4.78,5.66.82-1.48,2.35-2.35,4.13-2.3.94.03,1.85.32,2.64.82-.02-.14-.04-.28-.06-.42-.14-1.08.18-2.16.92-2.98.79-.87,1.96-1.35,3.23-1.31.54.02,1.06.12,1.55.32.03,0,.06.02.08.03-.48-.72-.89-1.7-.59-2.83.16-.61.67-1.7,2.27-2.21l.11-.03c2.84-.75,3.14-1.55,3.18-1.7l.04-.15s0-.05,0-.08c-.41.02-1.06.34-1.68.65-.92.45-1.96.97-3.2,1.1-.36.05-.72.07-1.05.06-1.66-.05-2.96-.86-3.46-2.17-.23-.6-.57-2.09.81-3.79-.75.45-1.48.67-2.22.64-.89-.03-1.71-.41-2.32-1.08-.11-.13-.22-.26-.31-.4-.34.95-1.05,1.66-2.01,2.01l-.49.18-.51-.05c-.94-.09-1.68-.5-2.26-1.01.05.37.07.77.05,1.19l-.02.28-.08.27c-.54,1.76-1.83,2.82-3.59,2.98,1.51.85,1.83,1.99,1.87,2.67.04.8-.21,2.28-2.41,3.2l-.13.05c-.26.09-.53.18-.8.27-1.7.57-3.3,1.12-4.19,2.2l-.03.04c.44-.18.99-.49,1.4-.72.79-.44,1.61-.9,2.51-1.16l.13-.03c.61-.13,1.19-.19,1.72-.18Z"/>
    <path class="cls-2" d="M304.31,228.06l-.5-1.55c-.19-.59-.27-1.22-.23-1.84l.1-1.62c.07-1.25-.32-2.49-1.11-3.47l-1.02-1.26c-.39-.48-.69-1.04-.88-1.63l-.5-1.55c-.38-1.2-1.2-2.21-2.29-2.83l-1.41-.81c-.54-.31-1.02-.72-1.41-1.2l-1.02-1.26c-.79-.98-1.91-1.62-3.16-1.81l-1.61-.25c-.62-.09-1.21-.3-1.75-.61l-1.41-.81c-1.09-.63-2.37-.82-3.6-.55l-1.59.35c-.61.13-1.24.15-1.85.06l-1.61-.25c-1.24-.19-2.51.09-3.55.79l-1.35.9c-.52.35-1.1.59-1.7.73l-1.59.35c-1.23.27-2.31.99-3.03,2.02l-.94,1.33c-.36.51-.81.95-1.33,1.29l-1.35.9c-1.05.7-1.79,1.76-2.1,2.98l-.39,1.58c-.15.6-.41,1.17-.77,1.68l-.94,1.33c-.72,1.03-1.04,2.29-.88,3.53l.2,1.61c.08.62.04,1.24-.11,1.85l-.39,1.58c-.3,1.22-.14,2.51.45,3.61l.77,1.43c.3.55.49,1.15.56,1.76l.2,1.61c.16,1.25.77,2.39,1.73,3.2l1.24,1.05c.47.4.87.89,1.16,1.44l.77,1.43c.6,1.11,1.58,1.95,2.77,2.36l1.53.54c.59.21,1.13.52,1.61.92l1.24,1.05c.96.82,2.18,1.24,3.44,1.2l1.62-.05c.62-.02,1.24.07,1.83.28l1.53.54c1.19.42,2.48.37,3.64-.12l1.49-.64c.57-.24,1.19-.38,1.81-.4l1.62-.05c1.26-.04,2.45-.55,3.35-1.43l1.16-1.13c.45-.43.97-.78,1.54-1.03l1.49-.64c1.16-.49,2.09-1.4,2.61-2.54l.68-1.48c.26-.57.62-1.08,1.07-1.51l1.16-1.13c.9-.88,1.44-2.06,1.52-3.31l.1-1.62c.04-.62.19-1.23.45-1.8l.68-1.48c.52-1.14.6-2.44.22-3.63ZM296.77,237.66c-3.16,2.36-5.95-3.18-9-2.49-1.46.33-1.7,2.85-1.54,4.03.2,1.52.9,2.91,1.49,4.32.42,1.01.76,2.26.09,3.13-.72.93-2.34.75-3.06-.18-.48-.61-.62-1.41-.71-2.18-.15-1.24-.19-2.51-.67-3.66-.81-1.96-3.19-3.05-4.78-1.25-.6.68-.86,1.6-.94,2.51s.01,1.81.02,2.72c0,.81-.07,1.65-.46,2.36s-1.18,1.25-1.98,1.14c-.89-.12-1.52-1-1.65-1.89s.12-1.78.36-2.65c.26-.91.52-1.82.78-2.74.23-.8.46-1.62.44-2.45s-.32-1.7-.99-2.21c-.74-.56-2.14-.68-2.99-.29-.33.15-.54.41-.82.65-.41.34-.85.42-1.27.66-.33.19-.67.39-1.04.49-.29.07-.59.09-.88.08-.54-.01-1.1-.1-1.55-.39s-.79-.82-.71-1.36c.08-.55.55-.96.98-1.31.54-.43,1.1-.69,1.7-1.01,1.23-.66,2.72-1.08,3.44-2.27.63-1.05.58-2.49-.56-3.09-1.39-.74-3.06-.58-4.53-1.03-.93-.28-1.85-.93-2.05-1.88-.12-.59.06-1.23.47-1.66,1.11-1.15,2.94-.15,4.09.4,1.52.73,4.03,1.5,5.49.24.55-.48.58-1.37.25-2.02s-.92-1.13-1.49-1.58c-.72-.57-1.37-1.21-2.15-1.71s-1.55-.89-2.08-1.63c-.46-.63-.58-1.6-.05-2.17.58-.62,1.65-.48,2.34.02,1.45,1.05,2.53,2.48,3.69,3.81,1.24,1.41,2.38,2.17,4.35,1.92,1.25-.16,1.36-1.9,1.34-2.88-.05-1.99-1.5-3.52-1.7-5.4-.16-1.58.65-2.49,2.04-2.95,1.08-.35,2.08.06,2.17,1.29.15,1.95-.32,3.88-.37,5.83-.03,1.22.61,3.52,2.32,3.17.39-.08.72-.34,1.02-.6.54-.47,1.04-.97,1.51-1.51.64-.74,1.29-1.5,1.89-2.26.57-.72,1.02-1.48,1.9-1.87.95-.43,2.31-.1,2.6.91.14.51-.02,1.06-.31,1.5s-.69.79-1.08,1.15c-1.45,1.34-2.64,2.82-3.72,4.47-.51.78-1.42,2.28-.46,3.06,1.24,1,3.64.43,4.98.03,1.51-.44,2.99-1.08,4.56-1.1.47,0,1,.08,1.26.47.25.37.16.9-.12,1.25s-.69.57-1.1.75c-2.15.95-4.53,1.23-6.79,1.88-2.85.81-1.31,3.87.61,4.81.84.41,1.74.72,2.66.9.73.15,1.48.22,2.17.52s1.3.89,1.38,1.63c.07.62-.28,1.2-.79,1.58Z"/>
  </g>
</svg>